<?xml version="1.0" standalone="no"?>
<!DOCTYPE svg PUBLIC "-//W3C//DTD SVG 20010904//EN"
 "http://www.w3.org/TR/2001/REC-SVG-20010904/DTD/svg10.dtd">
<svg version="1.0" xmlns="http://www.w3.org/2000/svg"
 width="1920.000000pt" height="1080.000000pt" viewBox="0 0 1920.000000 1080.000000"
 preserveAspectRatio="xMidYMid meet">

<g transform="translate(0.000000,1080.000000) scale(0.100000,-0.100000)"
fill="#000000" stroke="none">
<path d="M5040 7184 c-219 -24 -397 -66 -522 -123 -138 -62 -270 -177 -322
-280 -58 -114 -75 -270 -41 -395 55 -209 220 -366 390 -374 81 -4 108 9 108
53 0 39 -25 54 -88 54 -69 0 -113 19 -176 78 -175 164 -192 442 -38 617 99
112 250 182 509 237 141 30 415 32 565 5 118 -21 144 -32 164 -67 13 -24 11
-39 -28 -185 -160 -601 -368 -1277 -507 -1651 -35 -95 -64 -181 -64 -192 0
-40 41 -62 80 -41 47 25 337 914 553 1698 46 167 91 312 100 323 10 12 30 19
50 19 36 0 179 -46 422 -138 409 -153 548 -187 770 -187 149 1 166 3 239 28
97 34 163 72 171 98 9 26 -20 69 -46 69 -11 0 -46 -14 -79 -30 -175 -88 -405
-83 -715 17 -60 19 -211 73 -335 118 -397 146 -534 187 -752 224 -110 19 -338
33 -408 25z"/>
<path d="M12185 6741 c-100 -61 -196 -289 -255 -606 -25 -135 -36 -171 -55
-179 -7 -2 -145 -14 -306 -26 -162 -11 -304 -23 -317 -26 -32 -7 -47 -50 -27
-80 19 -30 10 -29 350 -4 147 11 276 18 285 15 15 -5 18 -29 24 -198 3 -105 9
-205 11 -222 5 -28 -2 -36 -84 -109 -157 -139 -303 -230 -447 -278 -55 -18
-91 -23 -179 -23 -98 0 -116 3 -165 26 -75 36 -129 85 -193 177 -91 130 -142
162 -239 149 -63 -8 -175 -69 -262 -141 -43 -36 -83 -66 -89 -66 -11 0 -8 23
21 150 23 105 18 124 -39 141 -49 15 -48 16 -170 -84 -104 -85 -268 -167 -404
-204 -89 -24 -118 -27 -271 -27 -218 -1 -211 -6 -216 139 -2 86 -7 108 -24
132 -30 40 -90 44 -132 8 -38 -32 -82 -118 -82 -162 0 -41 29 -100 64 -131 31
-26 26 -44 -25 -86 -43 -36 -94 -35 -147 4 -52 37 -70 89 -52 146 29 93 111
189 171 201 36 7 63 44 54 73 -16 51 -90 48 -161 -6 -24 -19 -53 -34 -64 -34
-10 0 -45 -23 -77 -50 -228 -200 -583 -332 -903 -334 -113 -1 -141 2 -173 18
-89 44 -98 103 -36 238 49 108 53 148 17 184 -36 37 -85 34 -178 -10 -70 -33
-188 -60 -217 -49 -24 9 -22 38 8 117 19 49 34 107 37 148 4 61 3 68 -21 92
-85 85 -247 -58 -247 -218 0 -32 5 -76 12 -98 11 -38 10 -40 -18 -64 -230
-193 -539 -290 -826 -260 -97 11 -102 17 -99 118 2 93 -17 161 -50 178 -55 30
-125 -9 -167 -93 -37 -74 -25 -154 32 -206 35 -33 33 -53 -9 -90 -48 -42 -97
-42 -154 -1 -67 49 -77 100 -37 186 34 72 92 133 154 160 45 21 52 27 52 52 0
41 -31 66 -72 58 -83 -17 -179 -111 -235 -231 -33 -72 -38 -170 -10 -221 65
-123 228 -176 339 -111 26 15 61 48 78 72 17 25 34 45 38 45 4 0 39 -7 77 -15
91 -19 259 -19 371 0 187 33 382 118 533 234 l85 64 50 -13 c58 -16 174 -15
226 1 19 5 56 20 82 31 27 12 50 19 53 17 2 -3 -9 -39 -25 -80 -33 -82 -39
-159 -16 -212 20 -49 97 -111 163 -133 67 -22 242 -24 365 -4 219 35 465 124
626 226 29 19 54 34 56 34 1 0 3 -26 3 -57 0 -131 111 -237 248 -237 89 0 147
35 205 123 l15 23 77 -16 c278 -57 650 34 893 220 26 19 49 33 51 31 2 -2 -13
-82 -35 -178 -43 -191 -42 -211 14 -217 24 -3 41 11 126 101 160 170 298 267
378 267 43 0 66 -21 125 -111 67 -103 172 -189 276 -225 74 -25 248 -26 340 0
159 43 351 157 510 299 54 49 54 49 64 26 100 -247 202 -347 387 -380 188 -33
461 70 731 277 31 24 58 44 60 44 2 0 4 -24 4 -53 2 -126 115 -231 249 -231
89 0 147 35 205 123 l15 23 77 -16 c323 -67 732 58 993 303 46 43 59 83 33
109 -23 23 -57 11 -126 -47 -39 -32 -91 -73 -117 -91 -75 -52 -227 -119 -332
-147 -87 -24 -117 -27 -269 -27 -218 -1 -211 -6 -216 139 -2 86 -7 108 -24
132 -30 40 -90 44 -132 8 -38 -32 -82 -118 -82 -162 0 -41 29 -100 64 -131 31
-26 26 -44 -25 -86 -43 -36 -94 -35 -147 4 -52 37 -70 89 -52 146 29 93 111
189 171 201 36 7 63 44 54 73 -15 49 -87 48 -155 -1 -21 -16 -45 -26 -53 -23
-8 3 -66 -41 -138 -102 -192 -165 -373 -277 -539 -335 -50 -18 -88 -23 -165
-23 -90 -1 -106 2 -156 27 -69 33 -128 95 -169 177 -32 63 -70 194 -70 242 0
15 22 83 49 150 26 68 61 159 76 203 16 44 32 84 36 89 10 11 192 24 507 35
177 6 268 13 278 21 17 15 19 61 2 78 -16 16 -159 16 -481 0 -136 -6 -250 -8
-254 -5 -3 4 12 67 35 140 65 204 92 323 99 427 6 108 -3 138 -57 184 -37 31
-73 33 -115 7z m70 -122 c14 -43 -30 -239 -110 -489 -47 -147 -61 -170 -101
-170 -33 0 -35 21 -13 138 38 203 105 413 162 510 22 36 52 42 62 11z m-205
-791 c0 -37 -44 -138 -60 -138 -13 0 -13 110 0 144 7 19 17 26 35 26 22 0 25
-4 25 -32z m-4942 -241 c-20 -61 -38 -87 -38 -54 0 36 44 136 56 125 2 -2 -6
-34 -18 -71z m-1181 -359 c-3 -20 -4 -21 -11 -5 -5 9 -5 29 0 45 7 25 8 26 11
5 3 -13 3 -33 0 -45z m3132 45 c-1 -10 -4 -29 -9 -43 -6 -22 -8 -23 -15 -7 -9
21 2 67 15 67 6 0 10 -8 9 -17z m4470 0 c-1 -10 -4 -29 -9 -43 -6 -22 -8 -23
-15 -7 -9 21 2 67 15 67 6 0 10 -8 9 -17z"/>
</g>
</svg>
